# xmcd
#
# Track frame offsets:
#	150
#	16140
#	34488
#	54809
#	71404
#	94421
#	117056
#	139517
#	160252
#	177231
#	194947
#
# Disc length: 2885 seconds
#
# Revision: 1
# Processed by: cddbd v1.5.2PL0 Copyright (c) Steve Scherf et al.
# Submitted via: audiograbber 1.83.01
#
DISCID=940b430b
DTITLE=Aaron Lewis - Sinner
DYEAR=2016
DGENRE=Country
TTITLE0=Sinner (ft. Willie Nelson)
TTITLE1=That Ain't Country
TTITLE2=Whiskey And You
TTITLE3=Northern Redneck
TTITLE4=Mama
TTITLE5=Sunday Every Saturday Night
TTITLE6=Lost And Lonely
TTITLE7=Story Of My Life
TTITLE8=Stuck In These Shoes
TTITLE9=I Lost It All
TTITLE10=Travelin' Soldier
EXTD=
EXTT0=
EXTT1=
EXTT2=
EXTT3=
EXTT4=
EXTT5=
EXTT6=
EXTT7=
EXTT8=
EXTT9=
EXTT10=
PLAYORDER=
